<svg version="1.1" id="Layer_1" xmlns="http://www.w3.org/2000/svg" xmlns:xlink="http://www.w3.org/1999/xlink" x="0px" y="0px"
	 width="100%" viewBox="0 0 475 475" enable-background="new 0 0 475 475" xml:space="preserve">
<path fill="#000000" opacity="1.000000" stroke="none" 
	d="
M323.000000,476.000000 
	C215.695999,476.000000 108.392014,476.000000 1.044009,476.000000 
	C1.044009,317.739288 1.044009,159.478577 1.044009,1.108929 
	C159.217377,1.108929 317.434845,1.108929 476.000000,1.108929 
	C476.000000,108.021179 476.000000,215.042740 475.606018,322.723816 
	C475.139893,327.152863 474.908936,330.927917 475.040314,334.690338 
	C475.172180,338.466797 475.665222,342.230621 476.000000,346.000000 
	C476.000000,389.261688 476.000000,432.523346 476.000000,476.000000 
	C431.645477,476.000000 387.290588,476.000000 342.281433,475.602905 
	C335.418121,475.470551 329.209045,475.735291 323.000000,476.000000 
M207.245361,102.997787 
	C202.476929,100.484711 197.701126,97.985466 192.942505,95.453941 
	C189.466278,93.604637 185.944855,91.826523 182.566238,89.811035 
	C178.414566,87.334373 174.504776,84.437454 170.282013,82.098488 
	C165.152267,79.257133 159.788345,76.841232 154.558044,74.177803 
	C151.196823,72.466164 147.860840,70.698875 144.572662,68.851341 
	C139.970459,66.265495 135.464493,63.506939 130.841507,60.959953 
	C125.820755,58.193817 120.677887,55.649513 115.653419,52.889866 
	C110.886223,50.271523 106.235100,47.442196 101.474480,44.811417 
	C96.599220,42.117275 91.623207,39.605499 86.746231,36.914349 
	C81.871635,34.224506 77.081482,31.382063 72.223686,28.661186 
	C67.937981,26.260735 63.538155,24.056511 59.319199,21.546339 
	C54.192242,18.495928 49.322132,15.000215 44.116959,12.098920 
	C39.450382,9.497831 34.319767,7.722586 29.682833,5.076615 
	C23.276548,1.421003 16.417280,2.038243 11.046492,5.394444 
	C6.619358,8.160954 3.017884,13.242550 2.929058,19.648445 
	C2.813894,27.953747 7.590920,34.129627 11.357869,40.767948 
	C17.834682,52.181744 24.579378,63.446632 30.897425,74.946648 
	C38.869125,89.456619 46.439846,104.186325 54.338631,118.737053 
	C65.993187,140.206467 77.715576,161.639786 89.542747,183.014511 
	C96.956612,196.413223 104.615578,209.676300 112.225861,223.704636 
	C124.538857,245.803543 136.851852,267.902435 149.027527,290.737915 
	C152.357864,296.756256 155.702972,302.766479 159.015015,308.794891 
	C163.755875,317.423920 168.388718,326.113525 173.226135,334.687897 
	C177.083603,341.525269 181.177902,348.228973 185.227295,355.699493 
	C188.120972,361.265137 190.863007,366.916443 193.946793,372.374664 
	C197.785461,379.168976 201.890823,385.813141 205.909454,392.505096 
	C210.229355,399.698700 214.582184,406.872528 219.001160,414.792328 
	C219.440903,415.801941 219.652756,417.020752 220.356781,417.787781 
	C225.541031,423.435974 230.699097,429.118103 236.111755,434.543823 
	C241.076004,439.520020 245.933395,444.766205 251.597321,448.836639 
	C257.696655,453.220032 265.072632,455.824432 271.183319,460.195282 
	C280.230103,466.666168 290.498444,470.289642 300.994843,471.680450 
	C315.513214,473.604248 330.335571,473.126160 345.003937,474.052948 
	C363.139832,475.198822 379.311249,468.212067 395.498688,461.836578 
	C402.279480,459.165955 408.201324,454.224640 414.352722,450.076935 
	C418.551605,447.245728 422.709564,444.266815 426.475922,440.895935 
	C444.220123,425.014801 457.901886,406.251526 466.013794,383.704559 
	C467.314453,380.089478 467.446869,375.975891 469.123993,372.590454 
	C472.804871,365.160217 474.044128,357.338806 473.949677,349.264374 
	C473.816010,337.838165 473.720551,326.386719 472.859741,315.002686 
	C472.312775,307.769470 471.106781,300.424713 468.986542,293.500427 
	C460.853210,266.938507 445.412018,245.103439 424.492676,227.017029 
	C421.365082,224.312973 418.370178,221.412811 415.013092,219.026611 
	C409.760254,215.292938 404.428741,211.596252 398.792053,208.500183 
	C394.477783,206.130463 389.640442,204.713150 384.759064,202.233826 
	C380.719330,199.793228 376.704407,197.310379 372.633392,194.923141 
	C367.947235,192.175186 363.205627,189.522018 358.498962,186.808868 
	C353.315948,183.821121 348.163513,180.779861 342.964661,177.820084 
	C336.011139,173.861282 329.032684,169.946106 322.051941,166.035355 
	C316.319702,162.824066 310.570923,159.642197 304.824890,156.455597 
	C300.954895,154.309387 297.121033,152.092285 293.191711,150.060181 
	C287.843140,147.294098 282.305664,144.876907 277.054810,141.942169 
	C269.873047,137.928223 262.964661,133.425446 255.786591,129.404419 
	C250.533371,126.461662 244.931290,124.143166 239.667038,121.218285 
	C229.038940,115.313171 218.534927,109.184738 207.245361,102.997787 
z"/>
<path fill="#FFB748" opacity="1.000000" stroke="none" 
	d="
M476.000000,345.531372 
	C475.665222,342.230621 475.172180,338.466797 475.040314,334.690338 
	C474.908936,330.927917 475.139893,327.152863 475.606018,323.191650 
	C476.000000,330.354248 476.000000,337.708496 476.000000,345.531372 
z"/>
<path fill="#FFB748" opacity="1.000000" stroke="none" 
	d="
M323.468262,476.000000 
	C329.209045,475.735291 335.418121,475.470551 341.813599,475.602905 
	C335.978851,476.000000 329.957703,476.000000 323.468262,476.000000 
z"/>
<path fill="#FFB14C" opacity="1.000000" stroke="none" 
	d="
M385.035736,202.872238 
	C389.640442,204.713150 394.477783,206.130463 398.792053,208.500183 
	C404.428741,211.596252 409.760254,215.292938 415.013092,219.026611 
	C418.370178,221.412811 421.365082,224.312973 424.492676,227.017029 
	C445.412018,245.103439 460.853210,266.938507 468.986542,293.500427 
	C471.106781,300.424713 472.312775,307.769470 472.859741,315.002686 
	C473.720551,326.386719 473.816010,337.838165 473.949677,349.264374 
	C474.044128,357.338806 472.804871,365.160217 469.123993,372.590454 
	C467.446869,375.975891 467.314453,380.089478 466.013794,383.704559 
	C457.901886,406.251526 444.220123,425.014801 426.475922,440.895935 
	C422.709564,444.266815 418.551605,447.245728 414.352722,450.076935 
	C408.201324,454.224640 402.279480,459.165955 395.498688,461.836578 
	C379.311249,468.212067 363.139832,475.198822 345.003937,474.052948 
	C330.335571,473.126160 315.513214,473.604248 300.994843,471.680450 
	C290.498444,470.289642 280.230103,466.666168 271.183319,460.195282 
	C265.072632,455.824432 257.696655,453.220032 251.597321,448.836639 
	C245.933395,444.766205 241.076004,439.520020 236.111755,434.543823 
	C230.699097,429.118103 225.541031,423.435974 220.356781,417.787781 
	C219.652756,417.020752 219.440903,415.801941 219.391022,414.412842 
	C228.798065,413.866791 233.494644,409.348755 231.491684,402.371460 
	C230.744873,399.769958 229.349792,397.041779 227.477661,395.126740 
	C215.178864,382.546265 202.702820,370.137756 190.177170,357.782104 
	C188.865784,356.488495 186.853943,355.904999 185.167068,354.992035 
	C181.177902,348.228973 177.083603,341.525269 173.226135,334.687897 
	C168.388718,326.113525 163.755875,317.423920 159.015015,308.794891 
	C155.702972,302.766479 152.357864,296.756256 149.446564,290.390045 
	C151.603622,291.225159 153.573044,292.174164 155.043091,293.628082 
	C167.090820,305.543549 179.033981,317.564667 191.035767,329.526733 
	C194.558670,333.037994 198.821304,333.993225 203.391083,332.174622 
	C207.414276,330.573578 209.346222,326.910461 208.763550,322.952240 
	C208.313705,319.896240 206.576416,316.718048 204.584457,314.266083 
	C200.516693,309.259033 195.873718,304.721161 191.502762,299.957855 
	C188.592728,296.786591 188.387726,293.176483 189.865921,289.289429 
	C191.286331,285.554413 193.926498,283.762604 198.155731,284.010132 
	C198.388184,284.032867 198.853348,284.053925 198.946854,284.402161 
	C202.641586,292.024902 206.118958,299.364594 209.899185,306.544830 
	C211.642899,309.856903 213.978729,312.857208 216.022247,316.002991 
	C215.998398,316.007111 216.019989,315.963837 216.010345,316.300354 
	C216.352646,317.425873 216.704575,318.214874 217.027878,319.002625 
	C216.999268,319.001373 217.028931,318.952423 217.072769,319.259033 
	C217.430817,320.092529 217.745026,320.619415 218.257904,321.420746 
	C224.882095,334.252014 230.663223,347.193054 237.872437,359.282532 
	C251.291168,381.785065 267.954254,401.118866 294.101807,410.315521 
	C327.526154,423.224945 360.465942,421.926147 392.890411,408.135376 
	C407.860535,401.768280 419.298737,391.112976 426.719055,376.016663 
	C446.181122,343.076569 437.043152,297.579437 405.990631,273.086639 
	C396.994843,265.991211 387.302917,259.778381 377.889221,252.812073 
	C376.660767,250.903702 375.630188,249.188324 374.260925,247.809128 
	C362.442841,235.904999 350.515869,224.108765 338.721954,212.180893 
	C332.305969,205.692001 334.101227,196.191818 342.439270,194.740128 
	C345.884979,194.140213 350.536011,196.125092 353.552307,198.384735 
	C358.421265,202.032303 362.260406,207.021561 366.771973,211.186890 
	C373.404999,217.310867 382.279633,214.415939 384.115936,205.704498 
	C384.319519,204.738693 384.724274,203.815308 385.035736,202.872238 
z"/>
<path fill="#FF844C" opacity="1.000000" stroke="none" 
	d="
M112.164566,223.000244 
	C104.615578,209.676300 96.956612,196.413223 89.542747,183.014511 
	C77.715576,161.639786 65.993187,140.206467 54.338631,118.737053 
	C46.439846,104.186325 38.869125,89.456619 30.897425,74.946648 
	C24.579378,63.446632 17.834682,52.181744 11.357869,40.767948 
	C7.590920,34.129627 2.813894,27.953747 2.929058,19.648445 
	C3.017884,13.242550 6.619358,8.160954 11.046492,5.394444 
	C16.417280,2.038243 23.276548,1.421003 29.682833,5.076615 
	C34.319767,7.722586 39.450382,9.497831 44.116959,12.098920 
	C49.322132,15.000215 54.192242,18.495928 59.319199,21.546339 
	C63.538155,24.056511 67.937981,26.260735 72.223686,28.661186 
	C77.081482,31.382063 81.871635,34.224506 86.746231,36.914349 
	C91.623207,39.605499 96.599220,42.117275 101.474480,44.811417 
	C106.235100,47.442196 110.886223,50.271523 115.653419,52.889866 
	C120.677887,55.649513 125.820755,58.193817 130.841507,60.959953 
	C135.464493,63.506939 139.970459,66.265495 144.572662,68.851341 
	C147.860840,70.698875 151.196823,72.466164 154.558044,74.177803 
	C159.788345,76.841232 165.152267,79.257133 170.282013,82.098488 
	C174.504776,84.437454 178.414566,87.334373 182.566238,89.811035 
	C185.944855,91.826523 189.466278,93.604637 192.942505,95.453941 
	C197.701126,97.985466 202.476929,100.484711 207.447510,103.411263 
	C206.025650,108.002541 207.641037,111.202293 210.594391,114.118675 
	C216.872574,120.318268 223.172958,126.500427 229.279678,132.866760 
	C233.372910,137.134033 233.630844,142.732208 230.345383,146.938629 
	C227.608154,150.443161 222.001328,151.222870 217.102997,148.474731 
	C215.112671,147.358093 213.323410,145.767838 211.693192,144.141891 
	C187.292923,119.806023 162.936859,95.425850 138.564911,71.061584 
	C131.723312,64.222145 125.454445,63.157276 120.798576,68.014984 
	C116.219467,72.792603 117.281105,78.781952 123.923378,85.428360 
	C142.635086,104.151718 161.375900,122.846100 180.038239,141.618484 
	C181.621231,143.210831 182.704941,145.299530 183.667786,147.058563 
	C168.541550,138.863861 153.827927,130.655411 138.944580,122.767235 
	C135.946030,121.178017 132.303741,120.803375 128.621033,119.848434 
	C127.833572,119.814522 127.383347,119.800926 126.647308,119.596878 
	C121.824219,117.108154 118.078575,118.340912 114.669037,121.814964 
	C111.098015,125.453575 111.297066,129.748489 113.870987,133.221375 
	C116.633621,136.948883 120.630768,139.761429 124.306122,143.228943 
	C126.322754,146.332794 128.122437,149.180954 129.998047,152.381653 
	C132.763779,158.062775 135.445770,163.395355 138.145065,168.719162 
	C144.441711,181.138077 150.746658,193.552765 156.706879,205.916199 
	C154.816864,204.648376 153.127075,203.575394 151.741394,202.196747 
	C137.590149,188.117340 123.595673,173.877625 109.269005,159.979965 
	C106.829330,157.613342 103.163361,155.809738 99.816017,155.262543 
	C95.888611,154.620514 92.228813,156.752274 90.733696,160.831558 
	C89.138176,165.184753 89.742874,169.236191 93.215790,172.761292 
	C107.331039,187.088562 121.460030,201.404800 135.380676,215.920044 
	C140.847275,221.620148 141.529770,228.887589 137.644196,232.715881 
	C133.515717,236.783508 127.040459,235.328384 120.712273,229.324524 
	C118.160164,226.903244 115.031075,225.090134 112.164566,223.000244 
z"/>
<path fill="#FF9C4C" opacity="1.000000" stroke="none" 
	d="
M184.020599,147.157654 
	C182.704941,145.299530 181.621231,143.210831 180.038239,141.618484 
	C161.375900,122.846100 142.635086,104.151718 123.923378,85.428360 
	C117.281105,78.781952 116.219467,72.792603 120.798576,68.014984 
	C125.454445,63.157276 131.723312,64.222145 138.564911,71.061584 
	C162.936859,95.425850 187.292923,119.806023 211.693192,144.141891 
	C213.323410,145.767838 215.112671,147.358093 217.102997,148.474731 
	C222.001328,151.222870 227.608154,150.443161 230.345383,146.938629 
	C233.630844,142.732208 233.372910,137.134033 229.279678,132.866760 
	C223.172958,126.500427 216.872574,120.318268 210.594391,114.118675 
	C207.641037,111.202293 206.025650,108.002541 207.814697,103.486588 
	C218.534927,109.184738 229.038940,115.313171 239.667038,121.218285 
	C244.931290,124.143166 250.533371,126.461662 255.786591,129.404419 
	C262.964661,133.425446 269.873047,137.928223 277.054810,141.942169 
	C282.305664,144.876907 287.843140,147.294098 293.191711,150.060181 
	C297.121033,152.092285 300.954895,154.309387 304.824890,156.455597 
	C310.570923,159.642197 316.319702,162.824066 322.051941,166.035355 
	C329.032684,169.946106 336.011139,173.861282 342.964661,177.820084 
	C348.163513,180.779861 353.315948,183.821121 358.498962,186.808868 
	C363.205627,189.522018 367.947235,192.175186 372.633392,194.923141 
	C376.704407,197.310379 380.719330,199.793228 384.897400,202.553040 
	C384.724274,203.815308 384.319519,204.738693 384.115936,205.704498 
	C382.279633,214.415939 373.404999,217.310867 366.771973,211.186890 
	C362.260406,207.021561 358.421265,202.032303 353.552307,198.384735 
	C350.536011,196.125092 345.884979,194.140213 342.439270,194.740128 
	C334.101227,196.191818 332.305969,205.692001 338.721954,212.180893 
	C350.515869,224.108765 362.442841,235.904999 374.260925,247.809128 
	C375.630188,249.188324 376.660767,250.903702 377.546265,252.721558 
	C368.624542,248.040161 360.102234,242.920197 351.362244,238.203537 
	C338.687958,231.363617 325.856384,224.815109 313.009460,217.791504 
	C307.428192,211.728638 302.204742,205.710403 296.325348,200.421356 
	C292.893707,197.334290 287.076233,198.618423 283.575806,202.009064 
	C276.764313,198.329605 270.304382,194.722229 264.226837,191.066742 
	C274.534363,188.135910 276.971558,179.912201 269.944336,172.507187 
	C264.905548,167.197556 259.902679,161.782867 254.307465,157.104309 
	C251.779892,154.990829 247.667786,153.200363 244.591736,153.615189 
	C236.012650,154.772125 233.352982,164.254578 239.238113,170.751648 
	C243.212646,175.139450 247.086960,179.618057 250.652039,183.990021 
	C241.663879,179.258774 233.032639,174.588333 224.395020,169.929672 
	C213.275696,163.932541 202.151291,157.944839 191.018402,151.969482 
	C191.007736,151.985901 191.034912,151.982849 190.829712,151.772842 
	C190.087189,151.337570 189.549866,151.112320 188.793961,150.659485 
	C187.057114,149.340500 185.538864,148.249069 184.020599,147.157654 
z"/>
<path fill="#FF9C4C" opacity="1.000000" stroke="none" 
	d="
M112.195206,223.352448 
	C115.031075,225.090134 118.160164,226.903244 120.712273,229.324524 
	C127.040459,235.328384 133.515717,236.783508 137.644196,232.715881 
	C141.529770,228.887589 140.847275,221.620148 135.380676,215.920044 
	C121.460030,201.404800 107.331039,187.088562 93.215790,172.761292 
	C89.742874,169.236191 89.138176,165.184753 90.733696,160.831558 
	C92.228813,156.752274 95.888611,154.620514 99.816017,155.262543 
	C103.163361,155.809738 106.829330,157.613342 109.269005,159.979965 
	C123.595673,173.877625 137.590149,188.117340 151.741394,202.196747 
	C153.127075,203.575394 154.816864,204.648376 156.690567,205.928284 
	C157.015640,205.993317 157.015060,205.963669 157.064224,206.260010 
	C157.449707,207.038498 157.786026,207.520645 158.351578,208.235794 
	C159.992950,210.646057 161.405106,212.823334 162.905487,215.355164 
	C163.839813,217.511673 164.630463,219.342133 165.540466,221.111191 
	C176.324417,242.075241 187.126190,263.030121 197.923279,283.987427 
	C193.926498,283.762604 191.286331,285.554413 189.865921,289.289429 
	C188.387726,293.176483 188.592728,296.786591 191.502762,299.957855 
	C195.873718,304.721161 200.516693,309.259033 204.584457,314.266083 
	C206.576416,316.718048 208.313705,319.896240 208.763550,322.952240 
	C209.346222,326.910461 207.414276,330.573578 203.391083,332.174622 
	C198.821304,333.993225 194.558670,333.037994 191.035767,329.526733 
	C179.033981,317.564667 167.090820,305.543549 155.043091,293.628082 
	C153.573044,292.174164 151.603622,291.225159 149.515228,290.021759 
	C136.851852,267.902435 124.538857,245.803543 112.195206,223.352448 
z"/>
<path fill="#FF9C4C" opacity="1.000000" stroke="none" 
	d="
M185.197174,355.345764 
	C186.853943,355.904999 188.865784,356.488495 190.177170,357.782104 
	C202.702820,370.137756 215.178864,382.546265 227.477661,395.126740 
	C229.349792,397.041779 230.744873,399.769958 231.491684,402.371460 
	C233.494644,409.348755 228.798065,413.866791 219.350754,414.044159 
	C214.582184,406.872528 210.229355,399.698700 205.909454,392.505096 
	C201.890823,385.813141 197.785461,379.168976 193.946793,372.374664 
	C190.863007,366.916443 188.120972,361.265137 185.197174,355.345764 
z"/>
<path fill="#B97D63" opacity="1.000000" stroke="none" 
	d="
M293.863068,410.033142 
	C267.954254,401.118866 251.291168,381.785065 237.872437,359.282532 
	C230.663223,347.193054 224.882095,334.252014 218.243149,321.096466 
	C217.696121,319.982605 217.362518,319.467529 217.028931,318.952423 
	C217.028931,318.952423 216.999268,319.001373 217.059235,318.663879 
	C216.752808,317.538849 216.386398,316.751343 216.019989,315.963837 
	C216.019989,315.963837 215.998398,316.007111 216.022629,315.613678 
	C212.719421,305.143829 209.391968,295.067413 206.045563,284.587891 
	C205.897934,283.535492 205.756195,282.888428 205.642548,282.236481 
	C203.487808,269.873413 201.336334,257.509766 199.619492,245.108887 
	C210.819321,243.904236 219.630264,248.685776 227.921829,255.218964 
	C230.124405,249.553436 232.955383,245.686203 238.723373,246.135712 
	C242.888168,246.460266 245.967651,248.909592 246.893799,253.075882 
	C248.429230,259.983154 244.202240,263.478210 238.709366,265.575226 
	C245.316757,278.232880 251.788742,290.631104 258.316040,303.135284 
	C264.307037,292.252899 271.899567,288.108124 280.744476,290.750916 
	C290.295837,293.604797 294.866394,300.540253 293.992371,310.912811 
	C293.497742,316.783264 290.052734,321.290100 285.236633,323.497650 
	C280.572357,325.635529 274.978882,325.746155 269.372925,326.828369 
	C279.147644,336.840790 289.709991,345.816071 304.915527,345.943420 
	C323.228912,346.096802 339.204773,337.163239 356.398224,332.100800 
	C356.804169,332.223419 356.966949,332.271179 357.177185,332.639954 
	C362.739227,342.703705 366.128784,353.107300 366.911499,364.519379 
	C366.852234,364.735687 366.728668,365.166931 366.437866,365.290619 
	C360.323456,369.643341 359.646515,373.568176 363.077576,383.437927 
	C358.189056,398.792664 341.113159,411.689362 324.647308,411.833527 
	C314.391937,411.923340 304.124878,410.678802 293.863068,410.033142 
M329.569031,390.016937 
	C333.057281,392.773285 336.311401,392.216431 339.290344,389.218872 
	C341.861572,386.631592 342.843658,383.620117 340.985016,380.214752 
	C339.078583,376.721649 335.962646,375.460968 332.180573,376.263947 
	C326.429901,377.484863 324.863464,384.246704 329.569031,390.016937 
z"/>
<path fill="#E95B27" opacity="1.000000" stroke="none" 
	d="
M357.129730,332.318970 
	C356.966949,332.271179 356.804169,332.223419 356.289062,331.761292 
	C352.979675,327.219269 350.022614,323.091614 347.412231,318.886108 
	C355.081726,316.444855 358.738159,311.620636 357.844025,305.502167 
	C357.003296,299.749298 352.408539,295.890778 346.412415,295.902313 
	C339.861298,295.914917 335.981110,299.624176 334.516510,306.836121 
	C328.369385,302.584656 322.458984,298.562836 316.635620,294.418762 
	C301.165924,283.410004 295.203369,267.634583 295.402710,249.446381 
	C295.536377,237.250549 299.587524,225.951157 307.528809,216.206757 
	C309.607117,216.886597 311.349518,217.514450 313.091888,218.142303 
	C325.856384,224.815109 338.687958,231.363617 351.362244,238.203537 
	C360.102234,242.920197 368.624542,248.040161 377.587128,253.070435 
	C387.302917,259.778381 396.994843,265.991211 405.990631,273.086639 
	C437.043152,297.579437 446.181122,343.076569 426.538696,375.663513 
	C424.692078,372.551239 423.344788,369.500977 421.807098,366.549988 
	C410.221100,344.314941 385.796753,325.648468 357.129730,332.318970 
M321.884644,255.006439 
	C313.616180,259.923401 312.643036,270.058563 319.971100,274.935638 
	C324.499634,277.949524 330.360229,277.661072 334.277771,274.231445 
	C338.190216,270.806274 339.373413,264.733856 337.020233,260.156403 
	C334.314240,254.892563 329.583954,253.097961 321.884644,255.006439 
M402.420624,325.985291 
	C408.280121,330.433014 414.259613,329.516907 417.487061,323.676971 
	C419.573914,319.900940 418.517914,314.815735 415.076721,312.069641 
	C411.287476,309.045807 406.515198,309.214783 402.871857,312.501770 
	C399.135803,315.872437 398.790680,320.371887 402.420624,325.985291 
M390.505890,290.058960 
	C394.733948,284.646362 393.322266,278.264496 387.539764,277.113831 
	C384.084442,276.426300 380.728149,276.893097 378.915680,280.405670 
	C377.273529,283.588257 377.291748,286.837433 380.016479,289.589539 
	C383.019714,292.622955 386.352081,292.870941 390.505890,290.058960 
z"/>
<path fill="#FFBA7B" opacity="1.000000" stroke="none" 
	d="
M199.184204,245.146240 
	C201.336334,257.509766 203.487808,269.873413 205.642548,282.236481 
	C205.756195,282.888428 205.897934,283.535492 205.651794,284.519531 
	C203.135773,284.587463 200.994553,284.320679 198.853348,284.053894 
	C198.853348,284.053925 198.388184,284.032867 198.155731,284.010132 
	C187.126190,263.030121 176.324417,242.075241 165.540466,221.111191 
	C164.630463,219.342133 163.839813,217.511673 163.341125,215.377686 
	C167.631042,215.195023 171.898056,216.379623 175.445267,215.267807 
	C181.866653,213.255081 182.528824,204.276810 176.960251,198.516907 
	C162.965271,184.041092 148.868515,169.663254 134.738708,155.318878 
	C133.399811,153.959656 131.540070,153.113480 129.922134,152.029129 
	C128.122437,149.180954 126.322754,146.332794 124.230042,142.873962 
	C122.882774,140.002182 121.794617,137.756149 120.780556,135.477142 
	C117.537163,128.187958 119.583054,122.997383 126.933121,119.787323 
	C127.383347,119.800926 127.833572,119.814522 128.788910,120.150604 
	C143.836227,135.111740 158.336990,149.792084 172.976379,164.332916 
	C174.684158,166.029190 177.021240,167.323517 179.302170,168.167404 
	C185.974335,170.635941 191.934326,166.440689 191.940842,159.344757 
	C191.943100,156.881134 191.350174,154.416992 191.029068,151.953079 
	C202.151291,157.944839 213.275696,163.932541 224.395020,169.929672 
	C233.032639,174.588333 241.663879,179.258774 250.888504,184.224060 
	C255.600861,186.721024 259.722687,188.917923 263.844482,191.114838 
	C270.304382,194.722229 276.764313,198.329605 283.780090,202.279251 
	C288.877502,205.429703 293.419006,208.237869 297.569031,211.054749 
	C295.439362,210.556396 293.651886,210.176300 291.970581,209.522980 
	C271.804413,201.686813 251.507339,194.582687 229.397293,194.919617 
	C210.942322,195.200867 202.155899,202.563614 198.707886,220.825348 
	C197.791428,220.114304 197.113876,219.627060 196.550186,219.031952 
	C193.546219,215.860428 190.039856,215.276535 186.190643,217.163116 
	C182.854736,218.798126 180.899872,221.270569 180.925262,225.329346 
	C180.952972,229.760162 182.514740,232.739792 186.556381,234.869720 
	C191.669022,237.564087 194.877548,233.585495 198.840286,232.530518 
	C198.971558,237.041473 199.077881,241.093857 199.184204,245.146240 
z"/>
<path fill="#9C4629" opacity="1.000000" stroke="none" 
	d="
M357.177185,332.639954 
	C385.796753,325.648468 410.221100,344.314941 421.807098,366.549988 
	C423.344788,369.500977 424.692078,372.551239 426.307861,375.908691 
	C419.298737,391.112976 407.860535,401.768280 392.890411,408.135376 
	C360.465942,421.926147 327.526154,423.224945 294.101807,410.315552 
	C304.124878,410.678802 314.391937,411.923340 324.647308,411.833527 
	C341.113159,411.689362 358.189056,398.792664 363.303497,383.404541 
	C363.554291,382.999725 364.005280,382.914490 364.228088,383.182770 
	C370.526550,387.837250 376.528381,387.560181 380.802917,382.696136 
	C384.996185,377.924591 384.838623,371.581329 380.465088,366.995178 
	C376.582031,362.923431 371.757080,363.751709 366.970734,364.303070 
	C366.128784,353.107300 362.739227,342.703705 357.177185,332.639954 
z"/>
<path fill="#FDC679" opacity="1.000000" stroke="none" 
	d="
M198.946854,284.402161 
	C200.994553,284.320679 203.135773,284.587463 205.670746,284.922607 
	C209.391968,295.067413 212.719421,305.143829 216.046478,315.609558 
	C213.978729,312.857208 211.642899,309.856903 209.899185,306.544830 
	C206.118958,299.364594 202.641586,292.024902 198.946854,284.402161 
z"/>
<path fill="#FDC679" opacity="1.000000" stroke="none" 
	d="
M216.010345,316.300354 
	C216.386398,316.751343 216.752808,317.538849 217.087860,318.665131 
	C216.704575,318.214874 216.352646,317.425873 216.010345,316.300354 
z"/>
<path fill="#FDC679" opacity="1.000000" stroke="none" 
	d="
M217.072769,319.259033 
	C217.362518,319.467529 217.696121,319.982605 218.044479,320.821991 
	C217.745026,320.619415 217.430817,320.092529 217.072769,319.259033 
z"/>
<path fill="#FFA97B" opacity="1.000000" stroke="none" 
	d="
M191.018402,151.969482 
	C191.350174,154.416992 191.943100,156.881134 191.940842,159.344757 
	C191.934326,166.440689 185.974335,170.635941 179.302170,168.167404 
	C177.021240,167.323517 174.684158,166.029190 172.976379,164.332916 
	C158.336990,149.792084 143.836227,135.111740 129.126129,120.170929 
	C132.303741,120.803375 135.946030,121.178017 138.944580,122.767235 
	C153.827927,130.655411 168.541550,138.863861 183.667786,147.058563 
	C185.538864,148.249069 187.057114,149.340500 188.988861,150.886200 
	C189.946548,151.554596 190.490723,151.768723 191.034912,151.982849 
	C191.034912,151.982849 191.007736,151.985901 191.018402,151.969482 
z"/>
<path fill="#FFA97B" opacity="1.000000" stroke="none" 
	d="
M129.998047,152.381653 
	C131.540070,153.113480 133.399811,153.959656 134.738708,155.318878 
	C148.868515,169.663254 162.965271,184.041092 176.960251,198.516907 
	C182.528824,204.276810 181.866653,213.255081 175.445267,215.267807 
	C171.898056,216.379623 167.631042,215.195023 163.252899,215.023117 
	C161.405106,212.823334 159.992950,210.646057 158.278061,207.946960 
	C157.655228,206.937988 157.335144,206.450821 157.015060,205.963669 
	C157.015060,205.963669 157.015640,205.993317 157.031952,205.981232 
	C150.746658,193.552765 144.441711,181.138077 138.145065,168.719162 
	C135.445770,163.395355 132.763779,158.062775 129.998047,152.381653 
z"/>
<path fill="#FF9C4C" opacity="1.000000" stroke="none" 
	d="
M126.647308,119.596878 
	C119.583054,122.997383 117.537163,128.187958 120.780556,135.477142 
	C121.794617,137.756149 122.882774,140.002182 124.013107,142.618286 
	C120.630768,139.761429 116.633621,136.948883 113.870987,133.221375 
	C111.297066,129.748489 111.098015,125.453575 114.669037,121.814964 
	C118.078575,118.340912 121.824219,117.108154 126.647308,119.596878 
z"/>
<path fill="#FF844C" opacity="1.000000" stroke="none" 
	d="
M264.226837,191.066742 
	C259.722687,188.917923 255.600861,186.721024 251.242584,184.290085 
	C247.086960,179.618057 243.212646,175.139450 239.238113,170.751648 
	C233.352982,164.254578 236.012650,154.772125 244.591736,153.615189 
	C247.667786,153.200363 251.779892,154.990829 254.307465,157.104309 
	C259.902679,161.782867 264.905548,167.197556 269.944336,172.507187 
	C276.971558,179.912201 274.534363,188.135910 264.226837,191.066742 
z"/>
<path fill="#FFB14C" opacity="1.000000" stroke="none" 
	d="
M297.960541,211.046051 
	C293.419006,208.237869 288.877502,205.429703 284.131653,202.351318 
	C287.076233,198.618423 292.893707,197.334290 296.325348,200.421356 
	C302.204742,205.710403 307.428192,211.728638 313.009460,217.791504 
	C311.349518,217.514450 309.607117,216.886597 307.231049,216.041199 
	C305.413910,215.216843 304.230469,214.610016 302.895081,213.808273 
	C302.516937,213.369843 302.258392,213.167633 301.987000,213.003662 
	C302.006439,213.000580 301.997803,213.039047 301.791412,212.832886 
	C301.046814,212.424316 300.508575,212.221924 299.986389,212.007812 
	C300.002441,211.996109 299.996857,212.035416 299.794647,211.826187 
	C299.055359,211.418518 298.518250,211.220078 297.982117,211.022980 
	C297.983063,211.024338 297.960541,211.046051 297.960541,211.046051 
z"/>
<path fill="#FFBA7B" opacity="1.000000" stroke="none" 
	d="
M190.829712,151.772842 
	C190.490723,151.768723 189.946548,151.554596 189.207458,151.113770 
	C189.549866,151.112320 190.087189,151.337570 190.829712,151.772842 
z"/>
<path fill="#FF844C" opacity="1.000000" stroke="none" 
	d="
M157.064224,206.260010 
	C157.335144,206.450821 157.655228,206.937988 158.048828,207.713959 
	C157.786026,207.520645 157.449707,207.038498 157.064224,206.260010 
z"/>
<path fill="#F08D61" opacity="1.000000" stroke="none" 
	d="
M303.047028,214.003174 
	C304.230469,214.610016 305.413910,215.216843 306.895142,215.989227 
	C299.587524,225.951157 295.536377,237.250549 295.402710,249.446381 
	C295.203369,267.634583 301.165924,283.410004 316.635620,294.418762 
	C322.458984,298.562836 328.369385,302.584656 334.604675,307.050476 
	C334.969299,307.438721 335.115417,307.876526 335.101166,308.260284 
	C336.797485,315.643463 338.937378,317.570984 346.450256,318.755371 
	C346.657623,318.818024 347.065552,318.963989 347.065552,318.963989 
	C350.022614,323.091614 352.979675,327.219269 356.045898,331.686401 
	C339.204773,337.163239 323.228912,346.096802 304.915527,345.943420 
	C289.709991,345.816071 279.147644,336.840790 269.372925,326.828369 
	C274.978882,325.746155 280.572357,325.635529 285.236633,323.497650 
	C290.052734,321.290100 293.497742,316.783264 293.992371,310.912811 
	C294.866394,300.540253 290.295837,293.604797 280.744476,290.750916 
	C271.899567,288.108124 264.307037,292.252899 258.316040,303.135284 
	C251.788742,290.631104 245.316757,278.232880 238.709366,265.575226 
	C244.202240,263.478210 248.429230,259.983154 246.893799,253.075882 
	C245.967651,248.909592 242.888168,246.460266 238.723373,246.135712 
	C232.955383,245.686203 230.124405,249.553436 227.921829,255.218964 
	C219.630264,248.685776 210.819321,243.904236 199.619476,245.108887 
	C199.077881,241.093857 198.971558,237.041473 198.887329,232.065536 
	C198.939423,227.761124 198.969391,224.380249 198.999359,220.999390 
	C202.155899,202.563614 210.942322,195.200867 229.397293,194.919617 
	C251.507339,194.582687 271.804413,201.686813 291.970581,209.522980 
	C293.651886,210.176300 295.439362,210.556396 297.569031,211.054749 
	C297.960541,211.046051 297.983063,211.024338 298.166748,211.251968 
	C298.899231,211.664871 299.448029,211.850143 299.996857,212.035400 
	C299.996857,212.035416 300.002441,211.996109 300.181152,212.227005 
	C300.905853,212.651611 301.451843,212.845337 301.997803,213.039047 
	C301.997803,213.039047 302.006439,213.000580 302.130554,213.206055 
	C302.482330,213.657562 302.746429,213.854797 303.047028,214.003174 
M281.184113,238.792542 
	C282.339722,238.861725 283.499481,239.030609 284.650269,238.983017 
	C289.878326,238.766800 293.257477,236.022842 295.077972,231.206940 
	C296.998016,226.127731 295.100006,222.228455 291.375458,218.803741 
	C287.546661,215.283127 283.227722,215.211670 278.921906,217.337341 
	C275.135986,219.206345 273.060547,222.409058 272.902130,226.891830 
	C272.698700,232.648285 275.431152,236.271118 281.184113,238.792542 
M234.918015,224.373215 
	C237.915726,220.276352 237.709732,216.270172 234.384567,213.998596 
	C231.285217,211.881287 226.735550,213.002533 225.278687,216.835007 
	C224.595398,218.632507 224.918030,221.507690 225.971436,223.118469 
	C227.883286,226.041901 230.989288,226.763107 234.918015,224.373215 
z"/>
<path fill="#E85B27" opacity="1.000000" stroke="none" 
	d="
M366.911499,364.519379 
	C371.757080,363.751709 376.582031,362.923431 380.465088,366.995178 
	C384.838623,371.581329 384.996185,377.924591 380.802917,382.696136 
	C376.528381,387.560181 370.526550,387.837250 364.288025,382.804199 
	C364.993011,376.493896 365.860840,370.830414 366.728668,365.166931 
	C366.728668,365.166931 366.852234,364.735687 366.911499,364.519379 
z"/>
<path fill="#EE8C61" opacity="1.000000" stroke="none" 
	d="
M329.289398,389.768250 
	C324.863464,384.246704 326.429901,377.484863 332.180573,376.263947 
	C335.962646,375.460968 339.078583,376.721649 340.985016,380.214752 
	C342.843658,383.620117 341.861572,386.631592 339.290344,389.218872 
	C336.311401,392.216431 333.057281,392.773285 329.289398,389.768250 
z"/>
<path fill="#EF8A5E" opacity="1.000000" stroke="none" 
	d="
M366.437866,365.290619 
	C365.860840,370.830414 364.993011,376.493896 364.065216,382.535950 
	C364.005280,382.914490 363.554291,382.999725 363.328369,383.033142 
	C359.646515,373.568176 360.323456,369.643341 366.437866,365.290619 
z"/>
<path fill="#9C4529" opacity="1.000000" stroke="none" 
	d="
M322.247986,254.848145 
	C329.583954,253.097961 334.314240,254.892563 337.020233,260.156403 
	C339.373413,264.733856 338.190216,270.806274 334.277771,274.231445 
	C330.360229,277.661072 324.499634,277.949524 319.971100,274.935638 
	C312.643036,270.058563 313.616180,259.923401 322.247986,254.848145 
z"/>
<path fill="#9C4529" opacity="1.000000" stroke="none" 
	d="
M335.115417,307.876526 
	C335.115417,307.876526 334.969299,307.438721 334.881104,307.224365 
	C335.981110,299.624176 339.861298,295.914917 346.412415,295.902313 
	C352.408539,295.890778 357.003296,299.749298 357.844025,305.502167 
	C358.738159,311.620636 355.081726,316.444855 347.412231,318.886108 
	C347.065552,318.963989 346.657623,318.818024 346.312897,318.460510 
	C342.350586,314.694183 338.733002,311.285370 335.115417,307.876526 
z"/>
<path fill="#9C4529" opacity="1.000000" stroke="none" 
	d="
M402.150757,325.703186 
	C398.790680,320.371887 399.135803,315.872437 402.871857,312.501770 
	C406.515198,309.214783 411.287476,309.045807 415.076721,312.069641 
	C418.517914,314.815735 419.573914,319.900940 417.487061,323.676971 
	C414.259613,329.516907 408.280121,330.433014 402.150757,325.703186 
z"/>
<path fill="#9C4529" opacity="1.000000" stroke="none" 
	d="
M390.210815,290.323395 
	C386.352081,292.870941 383.019714,292.622955 380.016479,289.589539 
	C377.291748,286.837433 377.273529,283.588257 378.915680,280.405670 
	C380.728149,276.893097 384.084442,276.426300 387.539764,277.113831 
	C393.322266,278.264496 394.733948,284.646362 390.210815,290.323395 
z"/>
<path fill="#FFA97B" opacity="1.000000" stroke="none" 
	d="
M198.707886,220.825348 
	C198.969391,224.380249 198.939423,227.761124 198.862396,231.606964 
	C194.877548,233.585495 191.669022,237.564087 186.556381,234.869720 
	C182.514740,232.739792 180.952972,229.760162 180.925262,225.329346 
	C180.899872,221.270569 182.854736,218.798126 186.190643,217.163116 
	C190.039856,215.276535 193.546219,215.860428 196.550186,219.031952 
	C197.113876,219.627060 197.791428,220.114304 198.707886,220.825348 
z"/>
<path fill="#FFBA7B" opacity="1.000000" stroke="none" 
	d="
M299.794647,211.826172 
	C299.448029,211.850143 298.899231,211.664871 298.165771,211.250610 
	C298.518250,211.220078 299.055359,211.418518 299.794647,211.826172 
z"/>
<path fill="#FFBA7B" opacity="1.000000" stroke="none" 
	d="
M301.791412,212.832886 
	C301.451843,212.845337 300.905853,212.651611 300.165131,212.238708 
	C300.508575,212.221924 301.046814,212.424316 301.791412,212.832886 
z"/>
<path fill="#FFBA7B" opacity="1.000000" stroke="none" 
	d="
M302.895081,213.808289 
	C302.746429,213.854797 302.482330,213.657562 302.111115,213.209137 
	C302.258392,213.167633 302.516937,213.369843 302.895081,213.808289 
z"/>
<path fill="#BA7D63" opacity="1.000000" stroke="none" 
	d="
M280.800049,238.678574 
	C275.431152,236.271118 272.698700,232.648285 272.902130,226.891830 
	C273.060547,222.409058 275.135986,219.206345 278.921906,217.337341 
	C283.227722,215.211670 287.546661,215.283127 291.375458,218.803741 
	C295.100006,222.228455 296.998016,226.127731 295.077972,231.206940 
	C293.257477,236.022842 289.878326,238.766800 284.650269,238.983017 
	C283.499481,239.030609 282.339722,238.861725 280.800049,238.678574 
z"/>
<path fill="#BA7D63" opacity="1.000000" stroke="none" 
	d="
M234.596909,224.592575 
	C230.989288,226.763107 227.883286,226.041901 225.971436,223.118469 
	C224.918030,221.507690 224.595398,218.632507 225.278687,216.835007 
	C226.735550,213.002533 231.285217,211.881287 234.384567,213.998596 
	C237.709732,216.270172 237.915726,220.276352 234.596909,224.592575 
z"/>
<path fill="#BA7A5F" opacity="1.000000" stroke="none" 
	d="
M335.101166,308.260284 
	C338.733002,311.285370 342.350586,314.694183 346.105530,318.397888 
	C338.937378,317.570984 336.797485,315.643463 335.101166,308.260284 
z"/>
</svg>
